<svg fill="none" height="48" viewBox="0 0 48 48" width="48" xmlns="http://www.w3.org/2000/svg"><path clip-rule="evenodd" d="m30.9547 21.2119c.3634.0396.645-.3115.5277-.6576l-1.7503-5.1624c-.1268-.3738-.6164-.4602-.8635-.1524l-1.2888 1.6061c-1.1613-.5811-2.4529-.8736-3.7638-.8435-1.7364.04-3.4126.6439-4.7754 1.7206s-2.3382 2.5676-2.7788 4.2476c-.4407 1.6799-.3227 3.4577.3362 5.0646.6589 1.607 1.8229 2.9559 3.316 3.843 1.4932.887 3.2345 1.2641 4.9609 1.0741 1.7264-.1899 3.344-.9365 4.6087-2.127 1.1429-1.0759 1.9413-2.4617 2.3012-3.9821.0637-.2687-.1207-.5277-.3928-.5744l-.9592-.1646c-.2722-.0467-.5286.1368-.5977.4042-.2838 1.0984-.8731 2.098-1.704 2.8802-.9527.8969-2.1714 1.4593-3.472 1.6024s-2.6124-.141-3.7373-.8092c-1.1249-.6683-2.0017-1.6845-2.4981-2.8951s-.5853-2.5499-.2533-3.8155c.3319-1.2656 1.0668-2.3888 2.0934-3.1999 1.0267-.8112 2.2895-1.2661 3.5976-1.2962.8431-.0194 1.6755.1384 2.4454.4573l-1.1068 1.3794c-.2471.3079-.0567.7672.3358.8099z" fill="#FFFFFF" fill-rule="evenodd"/></svg>